PathFileType	4	(X/Y/Z)	/Users/itak/Documents/Research/Walk-IL/dataset/trc/00257_00009.trc
DataRate	CameraRate	NumFrames	NumMarkers	Units	OrigDataRate	OrigDataStartFrame	OrigNumFrames
100.000000	100.000000	4	53	mm	100.000000	399	533
Frame#	Time	RPSI			LPSI			L3			STRN			T10			C7			CLAV			RBAK			LBAK			LSHO			LUPA			LAEL			LAOL			LWTS			LWPS			LFRA			LIFD			LHPS			LHTS			RSHO			RUPA			RAEL			RAOL			RWPS			RFRA			RIFD			RHTS			RHPS			RBHD			LFHD			RFHD			LBHD			LHIP			RHIP			RASI			LASI			LKNE			LTHI			LANK			LTIP			LTOE			LMT1			LMT5			LHEE			RKNE			RTHI			RANK			RTIP			RTOE			RMT5			RHEE			RWTS			RMT1			
		X1	Y1	Z1	X2	Y2	Z2	X3	Y3	Z3	X4	Y4	Z4	X5	Y5	Z5	X6	Y6	Z6	X7	Y7	Z7	X8	Y8	Z8	X9	Y9	Z9	X10	Y10	Z10	X11	Y11	Z11	X12	Y12	Z12	X13	Y13	Z13	X14	Y14	Z14	X15	Y15	Z15	X16	Y16	Z16	X17	Y17	Z17	X18	Y18	Z18	X19	Y19	Z19	X20	Y20	Z20	X21	Y21	Z21	X22	Y22	Z22	X23	Y23	Z23	X24	Y24	Z24	X25	Y25	Z25	X26	Y26	Z26	X27	Y27	Z27	X28	Y28	Z28	X29	Y29	Z29	X30	Y30	Z30	X31	Y31	Z31	X32	Y32	Z32	X33	Y33	Z33	X34	Y34	Z34	X35	Y35	Z35	X36	Y36	Z36	X37	Y37	Z37	X38	Y38	Z38	X39	Y39	Z39	X40	Y40	Z40	X41	Y41	Z41	X42	Y42	Z42	X43	Y43	Z43	X44	Y44	Z44	X45	Y45	Z45	X46	Y46	Z46	X47	Y47	Z47	X48	Y48	Z48	X49	Y49	Z49	X50	Y50	Z50	X51	Y51	Z51	X52	Y52	Z52	X53	Y53	Z53	

400	3.99	-89.70615386962891	1041.859008789062	-233.1064147949219	-207.8963165283203	1039.792358398438	-254.2538909912109	-158.4628448486328	1124.67333984375	-240.3337554931641	-121.8214797973633	1306.263549804688	-497.5884704589844	-145.1574249267578	1251.892822265625	-244.1951446533203	-132.9894409179688	1511.769897460938	-311.848876953125	-119.3002319335938	1423.380615234375	-473.0180358886719	-73.40292358398438	1370.05859375	-226.6556854248047	-243.2699890136719	1477.686767578125	-300.2839965820312	-294.1631774902344	1479.170043945312	-392.3108825683594	-376.4762573242188	1366.1806640625	-352.2286987304688	-412.2117919921875	1159.549194335938	-331.4417724609375	-356.7381286621094	1150.33251953125	-263.7219543457031	-374.7029418945312	914.1885375976562	-401.0035705566406	-451.0018005371094	904.3049926757812	-363.5602722167969	-432.8211059570312	1051.260131835938	-337.4312744140625	-387.2752685546875	721.2469482421875	-377.1072082519531	-449.6925659179688	813.7990112304688	-368.8027038574219	-402.7973022460938	811.146728515625	-417.5843505859375	38.15741729736328	1464.223266601562	-349.2004089355469	100.6976699829102	1398.296020507812	-323.0323181152344	145.7539672851562	1118.498413085938	-309.595947265625	52.4617919921875	1107.995239257812	-291.531494140625	183.6405029296875	902.873046875	-421.4655151367188	163.6571502685547	1053.479736328125	-342.681884765625	114.9974365234375	746.4650268554688	-514.29443359375	150.6269378662109	812.2623901367188	-535.485595703125	193.1651763916016	803.69384765625	-477.2933349609375	-72.00247192382812	1669.217529296875	-356.0161743164062	-141.2587585449219	1702.31591796875	-569.7512817382812	-41.83632278442383	1698.253662109375	-557.4436645507812	-198.2980346679688	1677.802978515625	-417.2872009277344	-321.6163024902344	976.4232788085938	-380.9796752929688	35.955322265625	1005.467834472656	-306.716064453125	nan	nan	nan	-256.9275207519531	1023.986938476562	-468.0336303710938	-245.9779205322266	530.7459716796875	-578.3602905273438	-291.9311828613281	660.52392578125	-521.5196533203125	-227.8629760742188	44.05160903930664	-521.0780029296875	-248.1730346679688	300.974609375	-542.9840698242188	-173.8402557373047	80.84001159667969	-726.3250732421875	-130.6822357177734	64.39741516113281	-661.6250610351562	-243.4756164550781	55.0366325378418	-646.4324951171875	-178.1808624267578	48.09678268432617	-458.1346435546875	-4.973556041717529	512.5053100585938	-326.1529846191406	46.61660003662109	778.7988891601562	-358.0947265625	-64.74465179443359	28.73708152770996	-247.9484100341797	-24.25162124633789	394.627197265625	-328.0321350097656	-70.99844360351562	41.86114883422852	-462.1532592773438	-18.77700424194336	31.47324371337891	-350.7588806152344	-133.0629577636719	31.41603851318359	-196.4720153808594	127.1445541381836	925.3922119140625	-479.4848327636719	-121.6665954589844	40.86187362670898	-415.7044067382812	
401	4	-88.76209259033203	1041.53466796875	-237.7834014892578	-206.97119140625	1039.496948242188	-258.9125061035156	-157.4981536865234	1124.3671875	-245.04931640625	-121.18359375	1305.7724609375	-502.4158935546875	-144.240234375	1251.644409179688	-248.8239593505859	-132.1921081542969	1511.446166992188	-316.8761596679688	-118.7330856323242	1422.923461914062	-477.964111328125	-72.20567321777344	1369.952392578125	-231.4917602539062	-242.4753723144531	1477.246704101562	-305.0694885253906	-293.5168762207031	1478.594116210938	-396.92919921875	-375.4864196777344	1365.419555664062	-356.6570739746094	-410.6932983398438	1158.71923828125	-335.6398315429688	-354.802490234375	1149.569458007812	-268.2387084960938	-373.44970703125	913.2625122070312	-405.168212890625	-449.4546813964844	903.4240112304688	-367.1711120605469	-431.2498474121094	1050.4296875	-341.4065246582031	-385.48388671875	720.341064453125	-380.259765625	-448.11572265625	812.8949584960938	-372.0494384765625	-401.5055847167969	810.0574951171875	-421.1112670898438	38.97670364379883	1463.964233398438	-354.5682983398438	101.4944229125977	1397.964721679688	-328.4695739746094	146.1566619873047	1118.084594726562	-314.7022705078125	53.00036239624023	1107.903930664062	-295.9691467285156	182.3487091064453	902.2991333007812	-426.9468688964844	163.6616668701172	1052.946044921875	-347.86767578125	112.2431030273438	746.0977172851562	-519.1284790039062	147.9403991699219	811.8054809570312	-540.6487426757812	190.9867248535156	803.0554809570312	-482.8419189453125	-71.35212707519531	1668.964721679688	-361.3716430664062	-141.1154479980469	1701.626586914062	-575.0029907226562	-41.68377685546875	1697.63330078125	-562.9020385742188	-197.8294219970703	1677.355346679688	-422.3864440917969	-320.6608581542969	976.118408203125	-385.5649108886719	36.84742736816406	1005.021240234375	-311.4117126464844	nan	nan	nan	-256.1088256835938	1023.6552734375	-472.6552124023438	-245.4988403320312	530.15283203125	-581.8761596679688	-291.5355834960938	659.904052734375	-525.0963134765625	-224.8913116455078	42.4576530456543	-535.4619140625	-246.765625	299.8039245605469	-551.488525390625	-169.9585723876953	83.01000213623047	-739.7843017578125	-127.1253433227539	65.79344177246094	-675.0888061523438	-239.8764953613281	55.43869781494141	-660.7194213867188	-175.7941284179688	45.60582733154297	-472.2115783691406	-4.792397499084473	512.2498779296875	-327.9468383789062	47.13491058349609	778.2738647460938	-361.7017822265625	-64.85301971435547	28.9005012512207	-247.9811401367188	-24.12557983398438	394.4463500976562	-329.2066040039062	-71.037841796875	41.72786331176758	-462.26123046875	-18.7926139831543	31.46757698059082	-350.7522583007812	-133.1513214111328	31.58460807800293	-196.5295715332031	125.4456329345703	925.0196533203125	-484.4213256835938	-121.6913833618164	40.74900054931641	-415.7748718261719	
402	4.01	-87.89293670654297	1041.161499023438	-242.5377044677734	-206.1229400634766	1039.134887695312	-263.6905212402344	-156.6304931640625	1123.9951171875	-249.8534545898438	-120.5926666259766	1305.257568359375	-507.2856750488281	-143.4157409667969	1251.336059570312	-253.5057373046875	-131.4929351806641	1511.06640625	-321.9085693359375	-118.1960067749023	1422.445190429688	-482.9295043945312	-71.14543151855469	1369.791870117188	-236.3631286621094	-241.7737274169922	1476.7451171875	-309.8934631347656	-292.9464416503906	1477.974487304688	-401.6031799316406	-374.586669921875	1364.607299804688	-361.189208984375	-409.3046569824219	1157.845581054688	-340.0314636230469	-353.0268249511719	1148.731079101562	-272.8989562988281	-372.2513427734375	912.3287963867188	-409.630126953125	-447.9790954589844	902.5164794921875	-371.1485900878906	-429.7833557128906	1049.548461914062	-345.6466674804688	-383.767578125	719.4072265625	-383.8819580078125	-446.63623046875	811.9732666015625	-375.7439880371094	-400.2735595703125	808.9815673828125	-425.0492553710938	39.71554946899414	1463.662963867188	-359.9044189453125	102.2030639648438	1397.602905273438	-333.8633728027344	146.5057830810547	1117.647216796875	-319.7388916015625	53.50217056274414	1107.787109375	-300.3241882324219	181.0027923583984	901.6874389648438	-432.322021484375	163.6104431152344	1052.384887695312	-352.9776916503906	109.3423690795898	745.6736450195312	-523.795166015625	145.1425476074219	811.2958984375	-545.6520385742188	188.717529296875	802.3659057617188	-488.259765625	-70.78473663330078	1668.668334960938	-366.7191467285156	-141.0518188476562	1700.914184570312	-580.246337890625	-41.60103225708008	1697.000732421875	-568.3516845703125	-197.4488067626953	1676.859130859375	-427.4800720214844	-319.7631530761719	975.7327270507812	-390.3060302734375	37.65957260131836	1004.547302246094	-316.1748046875	nan	nan	nan	-255.2906036376953	1023.260559082031	-477.4127502441406	-245.0492706298828	529.381103515625	-585.27392578125	-291.18408203125	659.1298217773438	-528.6212768554688	-222.1437683105469	40.96118545532227	-549.1487426757812	-245.48046875	298.6224365234375	-559.6364135742188	-166.1420745849609	85.08538055419922	-752.4713745117188	-123.6897964477539	67.15919494628906	-687.7353515625	-236.4027252197266	55.80680847167969	-674.2999267578125	-173.6678619384766	43.25419235229492	-485.5683288574219	-4.612008571624756	511.9966735839844	-329.9042663574219	47.68099594116211	777.7366333007812	-365.3744506835938	-64.95954132080078	29.05715179443359	-248.0166931152344	-24.00451469421387	394.2505187988281	-330.529052734375	-71.06817626953125	41.60424041748047	-462.3944396972656	-18.79992866516113	31.46455574035645	-350.7451171875	-133.2326049804688	31.77631378173828	-196.5926055908203	123.6752243041992	924.599853515625	-489.2318725585938	-121.705322265625	40.65127944946289	-415.8479309082031	
403	4.02	-87.09882354736328	1040.7353515625	-247.3724975585938	-205.3466949462891	1038.700439453125	-268.5852966308594	-155.8579559326172	1123.557373046875	-254.7429351806641	-120.0503387451172	1304.71630859375	-512.19775390625	-142.6855773925781	1250.9638671875	-258.2433166503906	-130.8929443359375	1510.628051757812	-326.9449157714844	-117.6952209472656	1421.940795898438	-487.9135131835938	-70.23244476318359	1369.572998046875	-241.2698059082031	-241.1652374267578	1476.180297851562	-314.7558288574219	-292.4522399902344	1477.309448242188	-406.3387451171875	-373.78369140625	1363.746826171875	-365.8309020996094	-408.0575866699219	1156.927978515625	-344.6168823242188	-351.4334411621094	1147.824340820312	-277.6991577148438	-371.1090698242188	911.3916625976562	-414.3866577148438	-446.5956726074219	901.581787109375	-375.5097961425781	-428.4292602539062	1048.617309570312	-350.1518859863281	-382.1718139648438	718.4601440429688	-388.0140991210938	-445.2420349121094	811.0281372070312	-379.9031066894531	-399.0890808105469	807.9276123046875	-429.4093322753906	40.36862182617188	1463.315795898438	-365.2041320800781	102.818473815918	1397.20654296875	-339.2084045410156	146.7982177734375	1117.18212890625	-324.7094421386719	53.95803070068359	1107.6357421875	-304.6143798828125	179.6247863769531	901.03662109375	-437.5888366699219	163.5002593994141	1051.79443359375	-358.0174865722656	106.3657455444336	745.1871337890625	-528.2970581054688	142.2705383300781	810.7274169921875	-550.4984130859375	186.3887023925781	801.6239624023438	-493.5451354980469	-70.29950714111328	1668.324584960938	-372.0562438964844	-141.0701599121094	1700.178344726562	-585.47607421875	-41.58556747436523	1696.35791015625	-573.7925415039062	-197.1507873535156	1676.312133789062	-432.5597839355469	-318.9111328125	975.2603759765625	-395.1977844238281	38.39389419555664	1004.046508789062	-321.009033203125	nan	nan	nan	-254.4715576171875	1022.802978515625	-482.3053894042969	-244.5949401855469	528.4434814453125	-588.5870361328125	-290.8570861816406	658.2088623046875	-532.1272583007812	-219.6472015380859	39.54345703125	-562.0344848632812	-244.3171081542969	297.4261474609375	-567.4074096679688	-162.4059295654297	87.00952911376953	-764.2949829101562	-120.3833618164062	68.4324951171875	-699.4727172851562	-233.0688629150391	56.1040153503418	-687.0725708007812	-171.7903900146484	41.05688858032227	-498.0922241210938	-4.42465877532959	511.7425842285156	-332.0466613769531	48.26621627807617	777.190673828125	-369.1297912597656	-65.06463623046875	29.20350074768066	-248.0553894042969	-23.88150596618652	394.0362548828125	-332.01708984375	-71.09635925292969	41.48965072631836	-462.5392456054688	-18.7994213104248	31.46202087402344	-350.7366943359375	-133.3079681396484	31.99372100830078	-196.6618804931641	121.8539505004883	924.128662109375	-493.9266357421875	-121.7093887329102	40.56938171386719	-415.9217224121094	
